<?xml version="1.0" encoding="UTF-8"?>
<svg id="Layer_1" data-name="Layer 1" xmlns="http://www.w3.org/2000/svg" viewBox="0 0 515.47 105.8">
  <defs>
    <style>
      .cls-1 {
        fill: aqua;
      }

      .cls-2 {
        fill: #f0f;
      }

      .cls-3 {
        opacity: .5;
      }
    </style>
  </defs>
  <g class="cls-3">
    <path class="cls-2" d="M2.87,3.87h65.01v17.86h-21.24v82.07h-22.54V21.73H2.87V3.87Z"/>
    <path class="cls-2" d="M72.12,3.87h22.4v39.31h23.78V3.87h22.4v99.93h-22.4v-42.48h-23.78v42.48h-22.4V3.87Z"/>
    <polygon class="cls-2" points="144.47 2.77 168.47 2.77 168.47 22.77 173.47 22.77 173.47 41.77 178.47 41.77 178.47 65.77 183.47 65.77 183.47 76.77 189.47 76.77 189.47 65.77 193.47 65.77 193.47 41.77 197.47 41.77 197.47 22.77 203.47 22.77 203.47 3.77 225.47 3.77 225.47 22.77 221.47 22.77 221.47 39.77 216.47 39.77 216.47 61.77 212.47 61.77 212.47 80.77 204.47 80.77 204.47 91.77 199.47 91.77 199.47 104.77 173.47 104.77 173.47 92.77 169.47 92.77 169.47 80.77 162.47 80.77 162.47 61.77 157.47 61.77 157.47 39.77 153.47 39.77 153.47 22.77 144.47 22.77 144.47 2.77"/>
    <polygon class="cls-2" points="372.47 28.77 372.47 4.77 325.47 3.77 325.47 10.77 321.47 10.77 321.47 14.77 317.47 14.77 317.47 18.77 312.47 18.77 312.47 23.77 307.47 23.77 307.47 83.77 312.47 83.77 312.47 87.77 317.47 87.77 317.47 91.77 321.47 91.77 321.47 95.77 325.47 95.77 325.47 99.77 328.47 99.77 328.47 105.77 378.47 105.77 378.47 45.77 346.47 45.77 346.47 68.77 356.47 68.77 356.47 81.77 337.47 81.77 337.47 77.77 333.47 77.77 333.47 72.77 329.47 72.77 329.47 36.77 333.47 36.77 333.47 31.77 337.47 31.77 337.47 28.77 372.47 28.77"/>
    <polygon class="cls-2" points="295.47 28.77 295.47 4.77 248.47 3.77 248.47 10.77 244.47 10.77 244.47 14.77 240.47 14.77 240.47 18.77 235.47 18.77 235.47 23.77 230.47 23.77 230.47 83.77 235.47 83.77 235.47 87.77 240.47 87.77 240.47 91.77 244.47 91.77 244.47 95.77 248.47 95.77 248.47 99.77 251.47 99.77 251.47 105.77 301.47 105.77 301.47 45.77 269.47 45.77 269.47 68.77 279.47 68.77 279.47 81.77 260.47 81.77 260.47 77.77 256.47 77.77 256.47 72.77 252.47 72.77 252.47 36.77 256.47 36.77 256.47 31.77 260.47 31.77 260.47 28.77 295.47 28.77"/>
    <path class="cls-2" d="M383.17,5.87h55.6v16.67h-33.2v23.91h31.41v16.74h-31.41v25.74h34.78v16.88h-57.18V5.87Z"/>
    <path class="cls-2" d="M512.47,95.77v-4h-4v-5h-4v-9h-4v-6h-4v-9h4v-4h4v-5h4v-4h4v-27h-1v-3h-4v-5h-4v-4h-5v-6l-54-1v102h23v-37h9v4h5v12h6v11h4v10h24v-10h-3ZM491.47,39.77h-4v4h-19v-15h19v4h4v7Z"/>
  </g>
  <g class="cls-3">
    <path class="cls-1" d="M0,1.1h65.01v17.86h-21.24v82.07h-22.54V18.96H0V1.1Z"/>
    <path class="cls-1" d="M69.25,1.1h22.4v39.31h23.78V1.1h22.4v99.93h-22.4v-42.48h-23.78v42.48h-22.4V1.1Z"/>
    <polygon class="cls-1" points="141.59 0 165.59 0 165.59 20 170.59 20 170.59 39 175.59 39 175.59 63 180.59 63 180.59 74 186.59 74 186.59 63 190.59 63 190.59 39 194.59 39 194.59 20 200.59 20 200.59 1 222.59 1 222.59 20 218.59 20 218.59 37 213.59 37 213.59 59 209.59 59 209.59 78 201.59 78 201.59 89 196.59 89 196.59 102 170.59 102 170.59 90 166.59 90 166.59 78 159.59 78 159.59 59 154.59 59 154.59 37 150.59 37 150.59 20 141.59 20 141.59 0"/>
    <polygon class="cls-1" points="369.59 26 369.59 2 322.59 1 322.59 8 318.59 8 318.59 12 314.59 12 314.59 16 309.59 16 309.59 21 304.59 21 304.59 81 309.59 81 309.59 85 314.59 85 314.59 89 318.59 89 318.59 93 322.59 93 322.59 97 325.59 97 325.59 103 375.59 103 375.59 43 343.59 43 343.59 66 353.59 66 353.59 79 334.59 79 334.59 75 330.59 75 330.59 70 326.59 70 326.59 34 330.59 34 330.59 29 334.59 29 334.59 26 369.59 26"/>
    <polygon class="cls-1" points="292.59 26 292.59 2 245.59 1 245.59 8 241.59 8 241.59 12 237.59 12 237.59 16 232.59 16 232.59 21 227.59 21 227.59 81 232.59 81 232.59 85 237.59 85 237.59 89 241.59 89 241.59 93 245.59 93 245.59 97 248.59 97 248.59 103 298.59 103 298.59 43 266.59 43 266.59 66 276.59 66 276.59 79 257.59 79 257.59 75 253.59 75 253.59 70 249.59 70 249.59 34 253.59 34 253.59 29 257.59 29 257.59 26 292.59 26"/>
    <path class="cls-1" d="M380.3,3.1h55.6v16.67h-33.2v23.91h31.41v16.74h-31.41v25.74h34.78v16.88h-57.18V3.1Z"/>
    <path class="cls-1" d="M509.59,93v-4h-4v-5h-4v-9h-4v-6h-4v-9h4v-4h4v-5h4v-4h4v-27h-1v-3h-4v-5h-4v-4h-5V2l-54-1v102h23v-37h9v4h5v12h6v11h4v10h24v-10h-3ZM488.59,37h-4v4h-19v-15h19v4h4v7Z"/>
  </g>
</svg>