<?xml version="1.0" encoding="UTF-8"?>
<svg id="Layer_1" data-name="Layer 1" xmlns="http://www.w3.org/2000/svg" viewBox="0 0 601.11 235.14">
  <defs>
    <style>
      .cls-1, .cls-2 {
        fill: aqua;
      }

      .cls-2 {
        stroke: #0071bc;
        stroke-miterlimit: 10;
        stroke-width: 5px;
      }

      .cls-3 {
        fill: #f0f;
      }

      .cls-4 {
        opacity: .5;
      }
    </style>
  </defs>
  <g class="cls-4">
    <path class="cls-2" d="M589.24,212.72c-9.53,20.53-35.63,19.27-61.25,19.85-135.81.16-339.51.01-449.86.03-11.43-.04-23.4-.14-33.78-1.29-14.94-1.68-26.45-5.84-32.92-19.73-5.51-10.69-7.51-32.87-8.1-48.68-.92-35.06-1.86-80.72,1.94-115.13C7.72,27.58,13.89,8.72,36.92,5.07c6.03-1.22,13.08-1.8,21.19-2.11,124.13-.98,350.46-.05,466.55-.32,49.38.29,69.1.97,72.51,57.71,1.85,27.25,1.52,58.53,1.15,87.69-.34,19.86-1.47,50.24-9.03,64.57l-.05.09Z"/>
    <path class="cls-3" d="M38.87,64.48h65.01v17.86h-21.24v82.07h-22.54v-82.07h-21.24v-17.86Z"/>
    <path class="cls-3" d="M108.11,64.48h22.4v39.31h23.78v-39.31h22.4v99.93h-22.4v-42.48h-23.78v42.48h-22.4v-99.93Z"/>
    <polygon class="cls-3" points="180.46 63.38 204.46 63.38 204.46 83.38 209.46 83.38 209.46 102.38 214.46 102.38 214.46 126.38 219.46 126.38 219.46 137.38 225.46 137.38 225.46 126.38 229.46 126.38 229.46 102.38 233.46 102.38 233.46 83.38 239.46 83.38 239.46 64.38 261.46 64.38 261.46 83.38 257.46 83.38 257.46 100.38 252.46 100.38 252.46 122.38 248.46 122.38 248.46 141.38 240.46 141.38 240.46 152.38 235.46 152.38 235.46 165.38 209.46 165.38 209.46 153.38 205.46 153.38 205.46 141.38 198.46 141.38 198.46 122.38 193.46 122.38 193.46 100.38 189.46 100.38 189.46 83.38 180.46 83.38 180.46 63.38"/>
    <polygon class="cls-3" points="408.46 89.38 408.46 65.38 361.46 64.38 361.46 71.38 357.46 71.38 357.46 75.38 353.46 75.38 353.46 79.38 348.46 79.38 348.46 84.38 343.46 84.38 343.46 144.38 348.46 144.38 348.46 148.38 353.46 148.38 353.46 152.38 357.46 152.38 357.46 156.38 361.46 156.38 361.46 160.38 364.46 160.38 364.46 166.38 414.46 166.38 414.46 106.38 382.46 106.38 382.46 129.38 392.46 129.38 392.46 142.38 373.46 142.38 373.46 138.38 369.46 138.38 369.46 133.38 365.46 133.38 365.46 97.38 369.46 97.38 369.46 92.38 373.46 92.38 373.46 89.38 408.46 89.38"/>
    <polygon class="cls-3" points="331.46 89.38 331.46 65.38 284.46 64.38 284.46 71.38 280.46 71.38 280.46 75.38 276.46 75.38 276.46 79.38 271.46 79.38 271.46 84.38 266.46 84.38 266.46 144.38 271.46 144.38 271.46 148.38 276.46 148.38 276.46 152.38 280.46 152.38 280.46 156.38 284.46 156.38 284.46 160.38 287.46 160.38 287.46 166.38 337.46 166.38 337.46 106.38 305.46 106.38 305.46 129.38 315.46 129.38 315.46 142.38 296.46 142.38 296.46 138.38 292.46 138.38 292.46 133.38 288.46 133.38 288.46 97.38 292.46 97.38 292.46 92.38 296.46 92.38 296.46 89.38 331.46 89.38"/>
    <path class="cls-3" d="M419.17,66.48h55.6v16.67h-33.2v23.91h31.41v16.74h-31.41v25.74h34.78v16.88h-57.18v-99.93Z"/>
    <path class="cls-3" d="M548.46,156.38v-4h-4v-5h-4v-9h-4v-6h-4v-9h4v-4h4v-5h4v-4h4v-27h-1v-3h-4v-5h-4v-4h-5v-6l-54-1v102h23v-37h9v4h5v12h6v11h4v10h24v-10h-3ZM527.46,100.38h-4v4h-19v-15h19v4h4v7Z"/>
  </g>
  <g class="cls-4">
    <path class="cls-1" d="M35.99,61.71h65.01v17.86h-21.24v82.07h-22.54v-82.07h-21.24v-17.86Z"/>
    <path class="cls-1" d="M105.24,61.71h22.4v39.31h23.78v-39.31h22.4v99.93h-22.4v-42.48h-23.78v42.48h-22.4V61.71Z"/>
    <polygon class="cls-1" points="177.59 60.61 201.59 60.61 201.59 80.61 206.59 80.61 206.59 99.61 211.59 99.61 211.59 123.61 216.59 123.61 216.59 134.61 222.59 134.61 222.59 123.61 226.59 123.61 226.59 99.61 230.59 99.61 230.59 80.61 236.59 80.61 236.59 61.61 258.59 61.61 258.59 80.61 254.59 80.61 254.59 97.61 249.59 97.61 249.59 119.61 245.59 119.61 245.59 138.61 237.59 138.61 237.59 149.61 232.59 149.61 232.59 162.61 206.59 162.61 206.59 150.61 202.59 150.61 202.59 138.61 195.59 138.61 195.59 119.61 190.59 119.61 190.59 97.61 186.59 97.61 186.59 80.61 177.59 80.61 177.59 60.61"/>
    <polygon class="cls-1" points="405.59 86.61 405.59 62.61 358.59 61.61 358.59 68.61 354.59 68.61 354.59 72.61 350.59 72.61 350.59 76.61 345.59 76.61 345.59 81.61 340.59 81.61 340.59 141.61 345.59 141.61 345.59 145.61 350.59 145.61 350.59 149.61 354.59 149.61 354.59 153.61 358.59 153.61 358.59 157.61 361.59 157.61 361.59 163.61 411.59 163.61 411.59 103.61 379.59 103.61 379.59 126.61 389.59 126.61 389.59 139.61 370.59 139.61 370.59 135.61 366.59 135.61 366.59 130.61 362.59 130.61 362.59 94.61 366.59 94.61 366.59 89.61 370.59 89.61 370.59 86.61 405.59 86.61"/>
    <polygon class="cls-1" points="328.59 86.61 328.59 62.61 281.59 61.61 281.59 68.61 277.59 68.61 277.59 72.61 273.59 72.61 273.59 76.61 268.59 76.61 268.59 81.61 263.59 81.61 263.59 141.61 268.59 141.61 268.59 145.61 273.59 145.61 273.59 149.61 277.59 149.61 277.59 153.61 281.59 153.61 281.59 157.61 284.59 157.61 284.59 163.61 334.59 163.61 334.59 103.61 302.59 103.61 302.59 126.61 312.59 126.61 312.59 139.61 293.59 139.61 293.59 135.61 289.59 135.61 289.59 130.61 285.59 130.61 285.59 94.61 289.59 94.61 289.59 89.61 293.59 89.61 293.59 86.61 328.59 86.61"/>
    <path class="cls-1" d="M416.29,63.71h55.6v16.67h-33.2v23.91h31.41v16.74h-31.41v25.74h34.78v16.88h-57.18V63.71Z"/>
    <path class="cls-1" d="M545.59,153.61v-4h-4v-5h-4v-9h-4v-6h-4v-9h4v-4h4v-5h4v-4h4v-27h-1v-3h-4v-5h-4v-4h-5v-6l-54-1v102h23v-37h9v4h5v12h6v11h4v10h24v-10h-3ZM524.59,97.61h-4v4h-19v-15h19v4h4v7Z"/>
  </g>
</svg>