<?xml version="1.0" encoding="UTF-8"?>
<svg xmlns="http://www.w3.org/2000/svg" viewBox="0 0 767.61 259.35">
  <defs>
    <style>
      .cls-1 {
        fill: aqua;
      }

      .cls-2 {
        fill: #f0f;
      }

      .cls-3 {
        opacity: .5;
      }
    </style>
  </defs>
  <g id="Layer_2" data-name="Layer 2">
    <g class="cls-3">
      <path class="cls-2" d="M9.57,9.01h165.12v44.33h-53.94v203.7h-57.25V53.35H9.57V9.01Z"/>
      <path class="cls-2" d="M353.35,234.84v-9.8h-9.8v-12.25h-9.8v-22.06h-9.8v-14.71h-9.8v-22.06h9.8v-9.8h9.8v-12.25h9.8v-9.8h9.8V55.92h-2.45v-7.35h-9.8v-12.25h-9.8v-9.8h-12.25v-14.71l-132.35-2.45v250h56.37v-90.69h22.06v9.8h12.25v29.41h14.71v26.96h9.8v24.51h58.82v-24.51h-7.35ZM301.88,97.59h-9.8v9.8h-46.57v-36.76h46.57v9.8h9.8v17.16Z"/>
      <path class="cls-2" d="M370.41,9.01h56.9v248.03h-56.9V9.01Z"/>
      <path class="cls-2" d="M598.3,129.92v-9.73h9.73V54.55h-2.43v-7.29h-9.73v-12.16h-9.73v-9.73h-12.16v-14.59l-131.29-2.43v248l131.29-2.43v-14.59h12.16v-9.73h9.73v-12.16h9.73v-7.29h2.43v-65.65h-9.73v-9.73h-9.73v-4.86h9.73ZM556.96,185.84h-9.73v9.73h-46.2v-36.47h46.2v9.73h9.73v17.02ZM556.96,95.88h-9.73v9.73h-46.2v-36.47h46.2v9.73h9.73v17.02Z"/>
      <path class="cls-2" d="M622.39,9.01h141.21v41.37h-84.31v59.35h79.77v41.54h-79.77v63.88h88.32v41.89h-145.22V9.01Z"/>
    </g>
  </g>
  <g id="Layer_1" data-name="Layer 1">
    <g class="cls-3">
      <path class="cls-1" d="M0,.66h165.12v44.33h-53.94v203.7h-57.25V45H0V.66Z"/>
      <path class="cls-1" d="M343.79,226.49v-9.8h-9.8v-12.25h-9.8v-22.06h-9.8v-14.71h-9.8v-22.06h9.8v-9.8h9.8v-12.25h9.8v-9.8h9.8V47.57h-2.45v-7.35h-9.8v-12.25h-9.8v-9.8h-12.25V3.45L177.12,1v250h56.37v-90.69h22.06v9.8h12.25v29.41h14.71v26.96h9.8v24.51h58.82v-24.51h-7.35ZM292.32,89.24h-9.8v9.8h-46.57v-36.76h46.57v9.8h9.8v17.16Z"/>
      <path class="cls-1" d="M360.84.66h56.9v248.03h-56.9V.66Z"/>
      <path class="cls-1" d="M588.73,121.57v-9.73h9.73V46.2h-2.43v-7.29h-9.73v-12.16h-9.73v-9.73h-12.16V2.43L433.12,0v248l131.29-2.43v-14.59h12.16v-9.73h9.73v-12.16h9.73v-7.29h2.43v-65.65h-9.73v-9.73h-9.73v-4.86h9.73ZM547.4,177.49h-9.73v9.73h-46.2v-36.47h46.2v9.73h9.73v17.02ZM547.4,87.53h-9.73v9.73h-46.2v-36.47h46.2v9.73h9.73v17.02Z"/>
      <path class="cls-1" d="M612.82.66h141.21v41.37h-84.31v59.35h79.77v41.54h-79.77v63.88h88.32v41.89h-145.22V.66Z"/>
    </g>
  </g>
</svg>